# This file uses meters as units for non-parametric coordinates.

mtllib door3.mtl
g default
v -7.071064 66.172882 67.123863
v 10.186104 66.280724 67.006020
v -7.071064 70.497299 67.123863
v 10.186104 70.389458 67.006020
v -7.071064 70.497299 62.398365
v 10.186104 70.389458 62.516209
v -7.071064 66.172882 62.398365
v 10.186104 66.280724 62.516209
v -3.225700 66.696274 66.551926
v -3.225700 66.696274 62.970303
v -3.225700 69.973907 62.970303
v -3.225700 69.973907 66.551926
v 6.155931 66.280724 67.006020
v 6.155931 70.389458 67.006020
v 6.155931 70.389458 62.516209
v 6.155931 66.280724 62.516209
v -3.070802 66.172882 67.123863
v -3.070802 66.172882 62.398365
v -3.070802 70.497299 62.398365
v -3.070802 70.497299 67.123863
v 5.702914 66.696274 66.551926
v 5.702914 66.696274 62.970303
v 5.702914 69.973907 62.970303
v 5.702914 69.973907 66.551926
v -2.428437 13.810934 70.227600
v -2.428437 117.052612 70.227600
v -2.428437 117.052612 -2.905796
v -2.428437 13.810934 -2.905796
v -2.428437 23.283495 3.804291
v -2.428437 23.283495 59.958214
v -2.428437 107.580055 3.804291
v -2.428437 107.580055 59.958214
v 0.960553 23.283495 3.804291
v 0.960553 23.283495 59.958214
v 0.960553 107.580055 3.804291
v 0.960553 107.580055 59.958214
v 5.462701 13.810934 70.227600
v 5.462701 117.052612 70.227600
v 5.462701 117.052612 -2.905796
v 5.462701 13.810934 -2.905796
v 5.462701 23.283495 3.804291
v 5.462701 23.283495 59.958214
v 5.462701 107.580055 3.804291
v 5.462701 107.580055 59.958214
v 2.073711 23.283495 3.804291
v 2.073711 23.283495 59.958214
v 2.073711 107.580055 3.804291
v 2.073711 107.580055 59.958214
vt 0.462141 0.887212
vt 0.473574 0.887212
vt 0.462141 0.896285
vt 0.473574 0.896285
vt 0.462141 0.905357
vt 0.473574 0.905357
vt 0.462141 0.914430
vt 0.473574 0.914430
vt 0.462141 0.923502
vt 0.473574 0.923502
vt 0.485006 0.887212
vt 0.485006 0.896285
vt 0.450708 0.887212
vt 0.450708 0.896285
vt 0.464427 0.887212
vt 0.464427 0.923502
vt 0.464427 0.914430
vt 0.464427 0.905357
vt 0.464427 0.896285
vt 0.470830 0.887212
vt 0.470830 0.923502
vt 0.470830 0.896285
vt 0.470830 0.905357
vt 0.470830 0.914430
vt 0.464199 0.887212
vt 0.464199 0.923502
vt 0.464199 0.914430
vt 0.464199 0.905357
vt 0.464199 0.896285
vt 0.470189 0.887212
vt 0.470189 0.923502
vt 0.470189 0.914430
vt 0.470189 0.905357
vt 0.470189 0.896285
vt 0.317162 0.781750
vt 0.317162 0.756410
vt 0.317288 0.755504
vt 0.317288 0.780844
vt 0.336956 0.781343
vt 0.336830 0.782248
vt 0.336830 0.756909
vt 0.336956 0.756003
vt 0.319021 0.779081
vt 0.335080 0.779489
vt 0.335080 0.758799
vt 0.319021 0.758391
vt 0.318967 0.758780
vt 0.335026 0.759188
vt 0.335026 0.779878
vt 0.318967 0.779471
vt 0.319038 0.758264
vt 0.335098 0.758671
vt 0.335098 0.779361
vt 0.319038 0.778954
vt 0.335152 0.758282
vt 0.319093 0.757874
vt 0.335152 0.778972
vt 0.319093 0.778564
vn -0.072417 0.000000 0.997374
vn -0.072417 0.000000 0.997374
vn -0.060237 0.000000 0.998184
vn -0.060237 0.000000 0.998184
vn -0.068046 0.997682 0.000000
vn -0.068046 0.997682 0.000000
vn -0.051946 0.998650 0.000000
vn -0.051946 0.998650 0.000000
vn -0.072417 0.000000 -0.997374
vn -0.072417 0.000000 -0.997374
vn -0.060237 0.000000 -0.998184
vn -0.060237 0.000000 -0.998184
vn -0.068046 -0.997682 0.000000
vn -0.068046 -0.997682 0.000000
vn -0.051946 -0.998650 0.000000
vn -0.051946 -0.998650 0.000000
vn 1.000000 0.000000 0.000000
vn 1.000000 0.000000 0.000000
vn 1.000000 0.000000 0.000000
vn 1.000000 0.000000 0.000000
vn -1.000000 0.000000 0.000000
vn -1.000000 0.000000 0.000000
vn -1.000000 0.000000 0.000000
vn -1.000000 0.000000 0.000000
vn 0.056638 -0.998395 0.000000
vn 0.056638 -0.998395 0.000000
vn 0.105624 -0.994406 0.000000
vn 0.105624 -0.994406 0.000000
vn 0.068890 0.000000 -0.997624
vn 0.068890 0.000000 -0.997624
vn 0.111095 0.000000 -0.993810
vn 0.111095 0.000000 -0.993810
vn 0.056638 0.998395 0.000000
vn 0.056638 0.998395 0.000000
vn 0.105624 0.994406 0.000000
vn 0.105624 0.994406 0.000000
vn 0.068891 0.000000 0.997624
vn 0.068891 0.000000 0.997624
vn 0.111096 0.000000 0.993810
vn 0.111096 0.000000 0.993810
vn 0.000000 0.000000 1.000000
vn 0.000000 0.000000 1.000000
vn 0.000000 1.000000 0.000000
vn 0.000000 1.000000 0.000000
vn 0.000000 0.000000 -1.000000
vn 0.000000 0.000000 -1.000000
vn 0.000000 -1.000000 0.000000
vn 0.000000 -1.000000 0.000000
vn 0.000000 -1.000000 0.000000
vn 0.000000 -1.000000 0.000000
vn 0.000000 0.000000 -1.000000
vn 0.000000 0.000000 -1.000000
vn 0.000000 1.000000 0.000000
vn 0.000000 1.000000 0.000000
vn 0.000000 0.000000 1.000000
vn 0.000000 0.000000 1.000000
vn 0.000000 0.000000 1.000000
vn 0.000000 0.000000 1.000000
vn 0.000000 0.000000 1.000000
vn 0.000000 0.000000 1.000000
vn 0.000000 1.000000 0.000000
vn 0.000000 1.000000 0.000000
vn 0.000000 1.000000 0.000000
vn 0.000000 1.000000 0.000000
vn 0.000000 0.000000 -1.000000
vn 0.000000 0.000000 -1.000000
vn 0.000000 0.000000 -1.000000
vn 0.000000 0.000000 -1.000000
vn 0.000000 -1.000000 0.000000
vn 0.000000 -1.000000 0.000000
vn 0.000000 -1.000000 0.000000
vn 0.000000 -1.000000 0.000000
vn -1.000000 0.000000 0.000000
vn -1.000000 0.000000 0.000000
vn -1.000000 0.000000 0.000000
vn -1.000000 0.000000 0.000000
vn -1.000000 0.000000 0.000000
vn -1.000000 0.000000 0.000000
vn -1.000000 0.000000 0.000000
vn -1.000000 0.000000 0.000000
vn -1.000000 0.000000 0.000000
vn -1.000000 0.000000 0.000000
vn -1.000000 0.000000 0.000000
vn -1.000000 0.000000 0.000000
vn -1.000000 0.000000 0.000000
vn -1.000000 0.000000 0.000000
vn -1.000000 0.000000 0.000000
vn -1.000000 0.000000 0.000000
vn -1.000000 0.000000 0.000000
vn -1.000000 0.000000 0.000000
vn -1.000000 0.000000 0.000000
vn -1.000000 0.000000 0.000000
vn 0.000000 1.000000 0.000000
vn 0.000000 1.000000 0.000000
vn 0.000000 1.000000 0.000000
vn 0.000000 1.000000 0.000000
vn 0.000000 0.000000 1.000000
vn 0.000000 0.000000 1.000000
vn 0.000000 0.000000 1.000000
vn 0.000000 0.000000 1.000000
vn 0.000000 -1.000000 0.000000
vn 0.000000 -1.000000 0.000000
vn 0.000000 -1.000000 0.000000
vn 0.000000 -1.000000 0.000000
vn 0.000000 0.000000 -1.000000
vn 0.000000 0.000000 -1.000000
vn 0.000000 0.000000 -1.000000
vn 0.000000 0.000000 -1.000000
vn 1.000000 0.000000 0.000000
vn 1.000000 0.000000 0.000000
vn 1.000000 0.000000 0.000000
vn 1.000000 0.000000 0.000000
vn 1.000000 -0.000000 0.000000
vn 1.000000 -0.000000 0.000000
vn 1.000000 -0.000000 0.000000
vn 1.000000 -0.000000 0.000000
vn 1.000000 0.000000 0.000000
vn 1.000000 0.000000 0.000000
vn 1.000000 0.000000 0.000000
vn 1.000000 0.000000 0.000000
vn 1.000000 0.000000 0.000000
vn 1.000000 0.000000 0.000000
vn 1.000000 0.000000 0.000000
vn 1.000000 0.000000 0.000000
vn 1.000000 0.000000 0.000000
vn 1.000000 0.000000 0.000000
vn 1.000000 0.000000 0.000000
vn 1.000000 0.000000 0.000000
vn 0.000000 1.000000 0.000000
vn 0.000000 1.000000 0.000000
vn 0.000000 1.000000 0.000000
vn 0.000000 1.000000 0.000000
vn 0.000000 0.000000 1.000000
vn 0.000000 0.000000 1.000000
vn 0.000000 0.000000 1.000000
vn 0.000000 0.000000 1.000000
vn 0.000000 -1.000000 0.000000
vn 0.000000 -1.000000 0.000000
vn 0.000000 -1.000000 0.000000
vn 0.000000 -1.000000 0.000000
vn 0.000000 0.000000 -1.000000
vn 0.000000 0.000000 -1.000000
vn 0.000000 0.000000 -1.000000
vn 0.000000 0.000000 -1.000000
s 1
g pCube5
usemtl Main_2:lambert2SG
f 24/34/1 21/30/2 13/20/3 14/22/4
s 2
f 23/33/5 24/34/6 14/22/7 15/23/8
s 3
f 22/32/9 23/33/10 15/23/11 16/24/12
s 4
f 21/31/13 22/32/14 16/24/15 13/21/16
s off
f 2/2/17 8/11/18 6/12/19 4/4/20
f 7/13/21 1/1/22 3/3/23 5/14/24
s 4
f 17/26/25 18/27/26 10/17/27 9/16/28
s 3
f 18/27/29 19/28/30 11/18/31 10/17/32
s 2
f 19/28/33 20/29/34 12/19/35 11/18/36
s 1
f 20/29/37 17/25/38 9/15/39 12/19/40
f 14/22/4 13/20/3 2/2/41 4/4/42
s 2
f 15/23/8 14/22/7 4/4/43 6/6/44
s 3
f 16/24/12 15/23/11 6/6/45 8/8/46
s 4
f 13/21/16 16/24/15 8/8/47 2/10/48
f 7/7/49 18/27/26 17/26/25 1/9/50
s 3
f 5/5/51 19/28/30 18/27/29 7/7/52
s 2
f 3/3/53 20/29/34 19/28/33 5/5/54
s 1
f 1/1/55 17/25/38 20/29/37 3/3/56
s 4
f 9/16/28 10/17/27 22/32/14 21/31/13
s 3
f 10/17/32 11/18/31 23/33/10 22/32/9
s 2
f 11/18/36 12/19/35 24/34/6 23/33/5
s 1
f 12/19/40 9/15/39 21/30/2 24/34/1
s off
f 26/35/57 25/36/58 37/37/59 38/38/60
f 38/38/61 39/39/62 27/40/63 26/35/64
f 28/41/65 27/40/66 39/39/67 40/42/68
f 25/36/69 28/41/70 40/42/71 37/37/72
f 36/43/73 35/44/74 33/45/75 34/46/76
f 30/47/77 29/48/78 28/41/79 25/36/80
f 28/41/81 29/48/82 31/49/83 27/40/84
f 26/35/85 27/40/86 31/49/87 32/50/88
f 26/35/89 32/50/90 30/47/91 25/36/92
f 34/46/93 33/45/94 29/48/95 30/47/96
f 29/48/97 33/45/98 35/44/99 31/49/100
f 32/50/101 31/49/102 35/44/103 36/43/104
f 32/50/105 36/43/106 34/46/107 30/47/108
f 46/51/109 45/52/110 47/53/111 48/54/112
f 37/37/113 40/42/114 41/55/115 42/56/116
f 40/42/117 39/39/118 43/57/119 41/55/120
f 44/58/121 43/57/122 39/39/123 38/38/124
f 38/38/125 37/37/126 42/56/127 44/58/128
f 42/56/129 41/55/130 45/52/131 46/51/132
f 41/55/133 43/57/134 47/53/135 45/52/136
f 48/54/137 47/53/138 43/57/139 44/58/140
f 44/58/141 42/56/142 46/51/143 48/54/144
