# This file uses meters as units for non-parametric coordinates.

mtllib L.mtl
g default
v -2.047048 1000.000000 -20.049954
v 960.054362 -0.000000 44.380710
v 897.429240 -0.000000 106.827976
v 897.679240 1000.000000 107.109226
v 883.822428 1000.000000 -20.050931
v 960.241862 1000.000000 44.546726
v -145.132131 -0.000000 44.347507
v -145.132131 1000.000000 44.347507
v -82.594778 -0.000000 106.885593
v -82.594778 1000.000000 106.885593
v -82.294729 -0.000000 -1019.126126
v -82.294729 1000.000000 -1019.126126
v -144.869680 0.000000 -956.551907
v -144.869680 1000.000000 -956.551907
v -19.719656 0.000000 -956.551907
v -19.719656 1000.000000 -956.551907
v -33.490652 0.000001 13.097507
v 883.822428 -0.415846 -17.342923
vt -0.947400 16.260759
vt -1.009963 16.198200
vt -0.884838 16.198200
vt 0.947400 1.000000
vt 0.947400 0.000000
vt -16.198200 0.000000
vt -16.198200 1.000000
vt 1.115600 16.197701
vt 1.053100 16.260201
vt 1.053099 16.135159
vt -1.053100 1.000000
vt -1.053100 0.000000
vt 15.134520 0.000000
vt 15.197100 0.000000
vt 15.134520 1.000000
vt 15.197100 1.000000
vt 1.052500 16.260870
vt 0.989925 16.198299
vt 1.115075 16.198299
vt 0.989925 15.197100
vt 1.115075 15.197100
vt 1.052500 15.134520
vt -15.197100 0.000000
vt -15.197100 1.000000
vt -16.198299 0.000000
vt -16.198299 1.000000
vt -15.134520 0.000000
vt -15.134520 1.000000
vt -15.197100 0.000000
vt -15.197100 1.000000
vt 16.198299 0.000000
vt 16.198299 1.000000
vt 15.197100 0.000000
vt 15.197100 1.000000
vt 1.000000 0.500000
vt 0.000000 1.000000
vn 0.000000 1.000000 0.000001
vn 0.000000 1.000000 0.000001
vn 0.000000 1.000000 0.000001
vn 0.000000 1.000000 0.000000
vn 0.000000 1.000000 0.000000
vn 0.000000 1.000000 0.000000
vn -0.707101 0.000000 -0.707112
vn -0.707101 0.000000 -0.707112
vn -0.707101 0.000000 -0.707112
vn -0.707101 0.000000 -0.707112
vn 0.000000 1.000000 0.000000
vn 0.000000 1.000000 0.000000
vn 0.000000 1.000000 0.000000
vn 0.000000 1.000000 0.000000
vn 0.000000 1.000000 0.000000
vn 0.000000 1.000000 0.000000
vn 0.000000 1.000000 0.000000
vn 0.000000 1.000000 0.000000
vn 0.000000 1.000000 0.000000
vn 0.000000 1.000000 0.000001
vn 0.000000 1.000000 0.000001
vn 0.000000 1.000000 0.000001
vn 0.999874 -0.015754 -0.002047
vn 0.999874 -0.015754 -0.002047
vn 0.999874 -0.015754 -0.002047
vn 0.999874 -0.015754 -0.002047
vn 0.707101 0.000000 -0.707113
vn 0.707101 0.000000 -0.707113
vn 0.707101 0.000000 -0.707113
vn 0.707101 0.000000 -0.707113
vn -1.000000 0.000000 -0.000262
vn -1.000000 0.000000 -0.000262
vn -1.000000 0.000000 -0.000262
vn -1.000000 0.000000 -0.000262
vn -0.000085 -0.000141 1.000000
vn -0.000085 -0.000141 1.000000
vn -0.000085 -0.000141 1.000000
vn -0.000085 -0.000141 1.000000
vn 0.706604 -0.000313 0.707610
vn 0.706604 -0.000313 0.707610
vn 0.706604 -0.000313 0.707610
vn 0.706604 -0.000313 0.707610
vn -0.707111 0.000000 0.707102
vn -0.707111 0.000000 0.707102
vn -0.707111 0.000000 0.707102
vn -0.707111 0.000000 0.707102
vn -0.016881 -0.017653 -0.999702
vn -0.016881 -0.017653 -0.999702
vn -0.016881 -0.017653 -0.999702
vn -0.016881 -0.017653 -0.999702
vn 0.000000 1.000000 0.000000
vn 0.000000 1.000000 0.000000
vn 0.000000 1.000000 0.000000
vn 0.000000 1.000000 0.000000
vn 0.637537 -0.001039 -0.770419
vn 0.637537 -0.001039 -0.770419
vn 0.637537 -0.001039 -0.770419
vn 0.637537 -0.001039 -0.770419
s off
g Wall_C2
usemtl lambert3SG
f 4/1/1 6/2/2 5/3/3
f 8/8/4 10/9/5 1/10/6
f 12/15/7 11/13/8 13/14/9 14/16/10
f 10/17/11 1/18/12 8/19/13
f 16/20/14 8/19/15 1/18/16
f 14/21/17 8/19/18 16/20/19
f 12/22/20 14/21/21 16/20/22
f 17/25/23 15/23/24 16/24/25 1/26/26
f 15/29/27 11/27/28 12/28/29 16/30/30
f 13/33/31 7/31/32 8/32/33 14/34/34
f 10/11/35 9/12/36 3/5/37 4/4/38
f 4/4/39 3/5/40 2/6/41 6/7/42
f 8/32/43 7/31/44 9/12/45 10/11/46
f 18/36/47 17/25/48 1/26/49 5/35/50
f 1/10/51 10/9/52 4/1/53 5/3/54
f 6/7/55 2/6/56 18/36/57 5/35/58
