# This file uses meters as units for non-parametric coordinates.

mtllib WALL BACK.mtl
g default
v 4541.034771 0.000000 4208.362461
v 4541.034771 1000.000000 4208.362461
v 4450.034405 0.000000 4118.362309
v 4450.034405 1000.000000 4118.362309
v -4341.193318 0.000000 4208.362461
v -4250.194477 0.000000 4118.362309
v -4341.193318 1000.000000 4208.362461
v -4250.194477 1000.000000 4118.362309
v -4341.193318 1000.000000 4208.362461
v -4250.194477 1000.000000 4118.362309
v -4250.194477 1000.000000 4298.362233
v 4450.034405 1000.000000 4298.362233
v 4450.034405 1000.000000 4118.362309
v 4541.034771 1000.000000 4208.362461
v -4250.194477 1000.000000 4298.362233
v -4250.194477 0.000000 4298.362233
v -4341.193318 1000.000000 4208.362461
v -4341.193318 0.000000 4208.362461
v 4450.034405 0.000000 4298.362233
v -4250.194477 0.000000 4298.362233
v 4450.034405 1000.000000 4298.362233
v -4250.194477 1000.000000 4298.362233
v 4541.034771 0.000000 4208.362461
v 4450.034405 0.000000 4298.362233
v 4541.034771 1000.000000 4208.362461
v 4450.034405 1000.000000 4298.362233
v -4250.194477 0.000000 4118.362309
v 4450.034405 0.000000 4118.362309
v -4250.194477 1000.000000 4118.362309
v 4450.034405 1000.000000 4118.362309
vt -4.182500 0.000000
vt -4.182500 1.000000
vt -4.092500 0.000000
vt -4.092500 1.000000
vt -0.066000 0.000000
vt -0.156000 0.000000
vt -0.066000 1.000000
vt -0.156000 1.000000
vt -0.066000 4.182500
vt -0.156000 4.092500
vt -0.156000 4.272500
vt -1.596000 4.272500
vt -1.596000 4.092500
vt -1.686000 4.182500
vt 4.272500 1.000000
vt 4.272500 0.000000
vt 4.182500 1.000000
vt 4.182500 0.000000
vt 1.596000 0.000000
vt 0.156000 0.000000
vt 1.596000 1.000000
vt 0.156000 1.000000
vt 1.686000 0.000000
vt 1.596000 0.000000
vt 1.686000 1.000000
vt 1.596000 1.000000
vt -0.156000 0.000000
vt -1.596000 0.000000
vt -0.156000 1.000000
vt -1.596000 1.000000
vn 0.703189 0.000000 -0.711003
vn 0.703189 0.000000 -0.711003
vn 0.703189 0.000000 -0.711003
vn 0.703189 0.000000 -0.711003
vn 0.703189 0.000000 -0.711003
vn 0.703189 0.000000 -0.711003
vn -0.703189 0.000000 -0.711003
vn -0.703189 0.000000 -0.711003
vn -0.703189 0.000000 -0.711003
vn -0.703189 0.000000 -0.711003
vn -0.703189 0.000000 -0.711003
vn -0.703189 0.000000 -0.711003
vn 0.000000 1.000000 0.000000
vn 0.000000 1.000000 0.000000
vn 0.000000 1.000000 0.000000
vn 0.000000 1.000000 0.000000
vn 0.000000 1.000000 0.000000
vn 0.000000 1.000000 0.000000
vn 0.000000 1.000000 0.000000
vn 0.000000 1.000000 0.000000
vn 0.000000 1.000000 0.000000
vn 0.000000 1.000000 0.000000
vn 0.000000 1.000000 0.000000
vn 0.000000 1.000000 0.000000
vn -0.703189 0.000000 0.711003
vn -0.703189 0.000000 0.711003
vn -0.703189 0.000000 0.711003
vn -0.703189 0.000000 0.711003
vn -0.703189 0.000000 0.711003
vn -0.703189 0.000000 0.711003
vn -0.000000 0.000000 1.000000
vn -0.000000 0.000000 1.000000
vn -0.000000 0.000000 1.000000
vn -0.000000 0.000000 1.000000
vn -0.000000 0.000000 1.000000
vn -0.000000 0.000000 1.000000
vn 0.703189 0.000000 0.711003
vn 0.703189 0.000000 0.711003
vn 0.703189 0.000000 0.711003
vn 0.703189 0.000000 0.711003
vn 0.703189 0.000000 0.711003
vn 0.703189 0.000000 0.711003
vn 0.000000 0.000000 -1.000000
vn 0.000000 0.000000 -1.000000
vn 0.000000 0.000000 -1.000000
vn 0.000000 0.000000 -1.000000
vn 0.000000 0.000000 -1.000000
vn 0.000000 0.000000 -1.000000
s off
g wall_ncl1_137 workbenchCopy
usemtl wall_ncl1_137SG
f 1/1/1 3/3/2 2/2/3
f 4/4/4 2/2/5 3/3/6
f 5/5/7 7/7/8 6/6/9
f 8/8/10 6/6/11 7/7/12
f 9/9/13 11/11/14 10/10/15
f 12/12/16 10/10/17 11/11/18
f 13/13/19 10/10/20 12/12/21
f 14/14/22 13/13/23 12/12/24
f 15/15/25 17/17/26 16/16/27
f 18/18/28 16/16/29 17/17/30
f 19/19/31 21/21/32 20/20/33
f 22/22/34 20/20/35 21/21/36
f 23/23/37 25/25/38 24/24/39
f 26/26/40 24/24/41 25/25/42
f 27/27/43 29/29/44 28/28/45
f 30/30/46 28/28/47 29/29/48
